<svg aria-hidden="true" style="position: absolute; width: 0; height: 0; overflow: hidden;" version="1.1" xmlns="http://www.w3.org/2000/svg" xmlns:xlink="http://www.w3.org/1999/xlink">
    <defs>
        <symbol id="icon-burger" viewBox="0 0 112 32">
            <path d="M0 0h112v4h-112v-4z"></path>
            <path d="M0 28h112v4h-112v-4z"></path>
        </symbol>
        <symbol id="icon-close" viewBox="0 0 32 32">
            <path d="M7.542 8.123l0.58-0.58 15.665 15.665-0.58 0.58-15.665-15.665z"></path>
            <path d="M7.542 23.208l15.665-15.665 0.58 0.58-15.665 15.665-0.58-0.58z"></path>
        </symbol>
        <symbol id="icon-add-file" viewBox="0 0 32 32">
            <path fill="#f7f7f6" style="fill: var(--color1, #f7f7f6)" d="M32 16c0 8.837-7.163 16-16 16s-16-7.163-16-16c0-8.837 7.163-16 16-16s16 7.163 16 16z"></path>
            <path fill="none" stroke="#3a3e4b" style="stroke: var(--color2, #3a3e4b)" stroke-linejoin="miter" stroke-linecap="butt" stroke-miterlimit="4" stroke-width="0.8205" d="M31.59 16c0 8.61-6.98 15.59-15.59 15.59s-15.59-6.98-15.59-15.59c0-8.61 6.98-15.59 15.59-15.59s15.59 6.98 15.59 15.59z"></path>
            <path fill="#3a3e4b" style="fill: var(--color2, #3a3e4b)" d="M12.308 15.59h7.385v0.821h-7.385v-0.82z"></path>
            <path fill="#3a3e4b" style="fill: var(--color2, #3a3e4b)" d="M15.59 12.308h0.821v7.385h-0.82v-7.385z"></path>
        </symbol>
    </defs>
</svg>