<svg aria-hidden="true" style="position: absolute; width: 0; height: 0; overflow: hidden;" version="1.1" xmlns="http://www.w3.org/2000/svg" xmlns:xlink="http://www.w3.org/1999/xlink">
    <defs>
        <symbol id="icon-burger" viewBox="0 0 112 32">
            <path d="M0 0h112v4h-112v-4z"></path>
            <path d="M0 28h112v4h-112v-4z"></path>
        </symbol>
        <symbol id="icon-close" viewBox="0 0 32 32">
            <path d="M7.542 8.123l0.58-0.58 15.665 15.665-0.58 0.58-15.665-15.665z"></path>
            <path d="M7.542 23.208l15.665-15.665 0.58 0.58-15.665 15.665-0.58-0.58z"></path>
        </symbol>
        <symbol id="icon-add-file" viewBox="0 0 32 32">
            <path fill="#f7f7f6" style="fill: var(--color1, #f7f7f6)" d="M32 16c0 8.837-7.163 16-16 16s-16-7.163-16-16c0-8.837 7.163-16 16-16s16 7.163 16 16z"></path>
            <path fill="none" stroke="#3a3e4b" style="stroke: var(--color2, #3a3e4b)" stroke-linejoin="miter" stroke-linecap="butt" stroke-miterlimit="4" stroke-width="0.8205" d="M31.59 16c0 8.61-6.98 15.59-15.59 15.59s-15.59-6.98-15.59-15.59c0-8.61 6.98-15.59 15.59-15.59s15.59 6.98 15.59 15.59z"></path>
            <path fill="#3a3e4b" style="fill: var(--color2, #3a3e4b)" d="M12.308 15.59h7.385v0.821h-7.385v-0.82z"></path>
            <path fill="#3a3e4b" style="fill: var(--color2, #3a3e4b)" d="M15.59 12.308h0.821v7.385h-0.82v-7.385z"></path>
        </symbol>
        <symbol id="icon-arrow-left" viewBox="0 0 18 32">
            <path stroke-linejoin="miter" stroke-linecap="butt" stroke-miterlimit="4" stroke-width="2.6667" d="M16.108 29.387l-14.222-14.222 14.222-14.222"></path>
        </symbol>
        <symbol id="icon-arrow-right" viewBox="0 0 18 32">
            <path stroke-linejoin="miter" stroke-linecap="butt" stroke-miterlimit="4" stroke-width="2.6667" d="M0.943 0.943l14.222 14.222-14.222 14.222"></path>
        </symbol>
        <symbol id="icon-quote" viewBox="0 0 39 32">
            <path d="M12.73 14.458c1.516 0.667 2.698 1.667 3.546 3.001s1.273 2.91 1.273 4.729c0 2.607-0.818 4.729-2.455 6.365-1.637 1.576-3.728 2.364-6.274 2.364s-4.668-0.818-6.365-2.455c-1.637-1.637-2.455-3.728-2.455-6.274 0-1.212 0.152-2.425 0.455-3.637s0.97-3.031 2.001-5.456l5.274-13.094h9.002l-4.001 14.458zM34.191 14.458c1.516 0.667 2.698 1.667 3.546 3.001s1.273 2.91 1.273 4.729c0 2.607-0.819 4.729-2.455 6.365-1.637 1.576-3.728 2.364-6.274 2.364s-4.668-0.818-6.365-2.455c-1.637-1.637-2.455-3.728-2.455-6.274 0-1.212 0.152-2.425 0.455-3.637s0.97-3.031 2.001-5.456l5.274-13.094h9.002l-4.001 14.458z"></path>
        </symbol>
        <symbol id="icon-first_last" viewBox="0 0 107 32">
            <path d="M44.659 29.679h5.571l-0.021-0.127-0.805-0.064c-0.275 0-0.487-0.021-0.657-0.042s-0.275-0.042-0.36-0.085c-0.085-0.021-0.148-0.042-0.148-0.064-0.021-0.021-0.021-0.064-0.021-0.106l2.669-12.56h1.906c0.72 0.085 1.25 0.275 1.546 0.614s0.53 1.038 0.699 2.097l0.042 0.254h0.085l0.318-3.156h-10.421l-0.974 3.156h0.106l0.169-0.275c0.53-0.868 1.017-1.525 1.44-1.949s0.953-0.657 1.567-0.741h2.16l-2.627 12.497c-0.042 0.169-0.402 0.296-1.101 0.339l-1.080 0.085-0.064 0.127zM60.469 29.933c0.657 0 1.504-1.017 2.542-3.050l-0.127-0.064-1.589 2.415-1.017-0.127 1.631-4.067c0.741-1.843 1.123-2.923 1.123-3.219 0-0.339-0.148-0.635-0.423-0.932s-0.53-0.445-0.784-0.445c-0.508 0-0.974 0.233-1.419 0.699-0.424 0.424-0.995 1.165-1.737 2.245-0.741 1.101-1.398 2.182-1.949 3.262l-0.127-0.042c0.678-1.652 1.694-4.872 3.092-9.616l0.403-1.356-3.156 0.36-0.042 0.127 1.694 0.064c0.148 0 0.191 0.169 0.106 0.487l-0.445 1.567c-0.297 1.059-0.699 2.372-1.165 3.94-0.487 1.588-0.911 2.923-1.25 3.982l-1.207 3.474 1.059 0.106 0.762-2.012c0.868-1.864 1.779-3.431 2.711-4.702s1.589-1.906 1.949-1.906c0.233 0 0.424 0.085 0.593 0.212 0.169 0.148 0.254 0.318 0.254 0.53s-0.381 1.271-1.101 3.177c-0.169 0.466-0.402 1.038-0.699 1.737s-0.508 1.25-0.657 1.652c-0.169 0.402-0.233 0.635-0.233 0.699 0 0.148 0.148 0.318 0.445 0.508 0.297 0.212 0.551 0.297 0.763 0.297zM66.13 29.933c1.144 0 2.288-0.995 3.431-3.008l-0.148-0.064c-0.508 0.847-0.974 1.44-1.398 1.779-0.424 0.36-0.911 0.53-1.419 0.53-0.551 0-0.974-0.233-1.271-0.699s-0.445-1.080-0.445-1.843c0-0.657 0.106-1.356 0.339-2.118 1.8-0.275 3.135-0.635 4.003-1.080 0.847-0.424 1.292-0.995 1.292-1.673 0-0.381-0.191-0.699-0.551-0.953-0.381-0.254-0.826-0.381-1.356-0.381-0.763 0-1.525 0.339-2.288 0.974-0.762 0.657-1.377 1.504-1.843 2.52-0.487 1.017-0.72 2.055-0.72 3.092 0 0.826 0.212 1.525 0.635 2.076 0.424 0.572 0.995 0.847 1.737 0.847zM65.346 24.299l-0.042-0.021c0.424-1.25 0.953-2.203 1.631-2.881 0.551-0.508 1.017-0.784 1.44-0.784 0.318 0 0.572 0.106 0.763 0.318 0.169 0.212 0.275 0.466 0.275 0.762 0 0.72-0.297 1.271-0.868 1.652s-1.631 0.699-3.198 0.953zM73.669 29.679h9.277l1.377-3.664-0.148-0.021-0.148 0.275c-0.614 1.059-1.207 1.864-1.758 2.393-0.572 0.53-1.313 0.805-2.224 0.805l-3.156-0.085 2.626-12.391c0.021-0.169 0.381-0.275 1.102-0.339l1.271-0.085 0.085-0.127h-5.486l0.021 0.127 0.508 0.064c0.593 0.085 0.932 0.127 1.038 0.148 0.106 0.042 0.148 0.085 0.148 0.148l-2.584 12.179c-0.042 0.169-0.403 0.275-1.102 0.36l-0.784 0.085-0.064 0.127zM90.578 29.955c0.826 0 1.758-1.017 2.775-3.071l-0.127-0.064-1.546 2.415-0.953-0.106 1.271-4.046 1.588-4.596-1.059-0.085-0.614 2.033h-0.021c0-1.271-0.403-1.906-1.207-1.906-0.593 0-1.165 0.297-1.758 0.89-0.868 0.868-1.673 1.927-2.393 3.177s-1.080 2.393-1.080 3.431c0 0.572 0.148 1.038 0.487 1.377 0.318 0.339 0.72 0.508 1.186 0.508 0.508 0 1.017-0.297 1.546-0.932 0.53-0.614 1.228-1.673 2.097-3.156h0.042c-0.593 1.483-0.868 2.393-0.868 2.732 0 0.36 0.042 0.678 0.169 0.974s0.275 0.424 0.466 0.424zM87.698 29.044c-0.297 0-0.572-0.106-0.784-0.36s-0.318-0.614-0.318-1.122c0-0.911 0.233-1.97 0.741-3.177 0.487-1.207 1.017-2.097 1.61-2.69 0.381-0.381 0.762-0.572 1.144-0.572 0.445 0 0.805 0.212 1.102 0.593 0.275 0.402 0.424 0.805 0.424 1.207 0 0.508-0.169 1.101-0.508 1.779-1.44 2.902-2.584 4.342-3.41 4.342zM96.345 29.933c0.678 0 1.334-0.233 1.927-0.741s0.868-1.101 0.868-1.8c0-0.36-0.127-0.741-0.339-1.144-0.212-0.381-0.699-0.953-1.462-1.694-0.89-0.847-1.356-1.567-1.356-2.118-0.021-0.508 0.127-0.932 0.466-1.292 0.318-0.36 0.763-0.551 1.313-0.551s1.038 0.275 1.44 0.805c-0.466 0.148-0.699 0.424-0.699 0.826 0 0.212 0.042 0.381 0.169 0.508s0.275 0.191 0.487 0.191c0.191 0 0.36-0.064 0.508-0.233 0.148-0.148 0.212-0.36 0.212-0.614-0.021-0.508-0.212-0.911-0.572-1.207-0.381-0.296-0.89-0.445-1.546-0.445-0.635 0-1.25 0.254-1.8 0.741-0.572 0.508-0.847 1.080-0.826 1.737 0 0.339 0.085 0.657 0.254 0.974 0.169 0.339 0.339 0.593 0.508 0.784 0.169 0.212 0.466 0.487 0.847 0.868 0 0.021 0.085 0.106 0.254 0.275s0.254 0.275 0.296 0.318c0.042 0.042 0.127 0.148 0.254 0.297s0.233 0.254 0.275 0.339c0.042 0.085 0.106 0.212 0.191 0.339s0.127 0.254 0.169 0.381c0.021 0.127 0.042 0.254 0.042 0.381 0 0.487-0.148 0.932-0.466 1.334s-0.784 0.593-1.419 0.593c-0.72 0-1.356-0.318-1.906-0.974 0.191-0.064 0.36-0.169 0.508-0.339 0.127-0.148 0.212-0.318 0.212-0.508s-0.064-0.36-0.191-0.487c-0.127-0.127-0.296-0.212-0.487-0.212s-0.36 0.085-0.487 0.254c-0.148 0.169-0.212 0.381-0.212 0.635 0 0.551 0.233 0.974 0.741 1.292 0.487 0.339 1.101 0.487 1.822 0.487zM101.581 29.933c0.657 0 1.483-1.017 2.499-3.050l-0.127-0.064-1.525 2.415-1.123-0.127 2.351-7.773h1.864l0.169-0.572-1.843-0.021 0.89-2.881h-1.038l-0.89 2.881-1.504 0.021-0.191 0.551 1.504 0.021-2.33 7.731c-0.064 0.169 0.085 0.339 0.424 0.551s0.635 0.318 0.868 0.318zM105.844 29.976c0.254 0 0.466-0.085 0.635-0.275s0.275-0.424 0.275-0.678c0-0.233-0.085-0.445-0.254-0.635-0.169-0.169-0.381-0.275-0.635-0.275-0.275 0-0.508 0.106-0.699 0.275-0.191 0.191-0.275 0.402-0.275 0.635 0 0.254 0.085 0.487 0.275 0.678 0.169 0.191 0.402 0.275 0.678 0.275z"></path>
            <path d="M5.489 13.913h2.506l1.818-10.255h6.001l0.388-2.1h-14.526l-0.388 2.1h6.019l-1.818 10.255zM15.721 13.913h2.506l0.441-2.471v0.035c0.512-2.895 2.047-4.783 3.954-4.783 1.712 0 2.242 1.024 1.783 3.689l-0.635 3.53h2.506l0.688-3.83c0.671-3.848-0.265-5.242-2.754-5.278-2.665 0-4.236 1.571-5.030 3.918h-0.141l1.624-7.166h-2.754l-2.189 12.355zM33.322 14.195c2.224 0 3.265-0.212 5.083-0.865l0.353-2.012c-1.077 0.424-2.065 0.971-4.219 0.971-2.33 0-3.389-0.582-3.424-2.030h8.207l0.265-1.447c0.388-2.4-1.447-4.007-4.607-4.007-3.195 0-5.648 1.871-6.142 4.695s1.288 4.695 4.483 4.695zM31.274 9.041c0.459-1.677 1.518-2.312 3.371-2.312 1.906 0 2.754 0.582 2.542 2.171l-5.913 0.141zM45.999 13.913h2.506l0.935-5.295h8.596l0.335-1.959h-8.596l0.53-3.001h8.755l0.371-2.1h-11.244l-2.189 12.355zM62.404 3.57c0.971 0 1.641-0.459 1.818-1.43 0.159-0.953-0.371-1.412-1.324-1.412-0.935 0-1.624 0.459-1.783 1.412-0.177 0.971 0.335 1.43 1.288 1.43zM59.35 13.913h2.506l1.553-8.825h-2.506l-1.553 8.825zM64.405 13.913h2.506l0.547-3.124c0.547-2.736 2.242-3.883 5.878-3.883l0.353-2.1c-3.301 0-4.836 1.024-5.807 3.918h-0.176l1.006-3.636h-2.754l-1.553 8.825zM77.754 14.195c3.106 0 5.348-0.865 5.701-2.912 0.671-3.848-7.519-1.871-7.202-3.583 0.106-0.618 1.059-0.918 3.142-0.918 1.324 0 2.859 0.194 4.060 0.459l0.353-1.942c-1.483-0.3-3.265-0.494-4.324-0.494-3.106 0-5.366 0.953-5.719 2.93-0.671 3.83 7.554 1.659 7.237 3.548-0.141 0.741-1.13 0.971-3.301 0.971-1.553 0-2.824-0.194-4.201-0.759l-0.353 2.012c1.394 0.424 3.248 0.688 4.607 0.688zM87.423 14.090c0.953 0 1.677-0.106 2.453-0.353l0.229-1.324c-2.577 0.141-2.524-0.106-2.153-2.206l0.583-3.301h2.542l0.335-1.818h-2.559l0.441-2.471-2.206 0.353-0.388 2.118h-1.606l-0.335 1.818h1.271l-0.671 3.83c-0.441 2.524-0.229 3.354 2.065 3.354z"></path>
        </symbol>
        <symbol id="icon-facebook" viewBox="0 0 33 32">
            <path fill="#3f5c95" style="fill: var(--color1, #3f5c95)" d="M16 0h1.032c8.837 0 16 7.163 16 16s-7.163 16-16 16h-1.032c-8.837 0-16-7.163-16-16s7.163-16 16-16z"></path>
            <path fill="#fff" style="fill: var(--color2, #fff)" d="M19.613 10.408v1.797h-1.118c-0.887 0-1.054 0.403-1.054 0.978v1.296h2.107l-0.283 2.017h-1.825v5.182h-2.197v-5.182h-1.825v-2.017h1.825v-1.491c0-1.723 1.118-2.665 2.737-2.665 0.771 0 1.439 0.049 1.632 0.086z"></path>
        </symbol>
        <symbol id="icon-twitter" viewBox="0 0 32 32">
            <path fill="#38a7de" style="fill: var(--color4, #38a7de)" d="M16 0c8.837 0 16 7.163 16 16s-7.163 16-16 16c-8.837 0-16-7.163-16-16s7.163-16 16-16z"></path>
            <path fill="#fff" style="fill: var(--color2, #fff)" d="M9.29 20.389c1.218 0.814 2.665 1.288 4.22 1.288 5.065 0 7.834-4.369 7.834-8.157 0-0.124-0.003-0.247-0.008-0.37 0.538-0.405 1.005-0.909 1.373-1.484-0.493 0.229-1.024 0.382-1.581 0.45 0.568-0.353 1.004-0.916 1.21-1.585-0.532 0.328-1.122 0.566-1.749 0.695-0.502-0.556-1.218-0.904-2.010-0.904-1.52 0-2.754 1.282-2.754 2.865 0 0.226 0.025 0.444 0.072 0.654-2.288-0.119-4.318-1.26-5.674-2.995-0.237 0.424-0.373 0.915-0.373 1.441 0 0.994 0.486 1.872 1.225 2.386-0.452-0.013-0.876-0.143-1.247-0.358 0 0.012 0 0.024 0 0.036 0 1.388 0.95 2.548 2.208 2.811-0.23 0.066-0.474 0.1-0.725 0.1-0.178 0-0.35-0.017-0.518-0.051 0.35 1.14 1.367 1.969 2.571 1.991-0.942 0.769-2.128 1.226-3.419 1.226-0.222 0-0.441-0.011-0.657-0.039z"></path>
        </symbol>
        <symbol id="icon-linkedin" viewBox="0 0 32 32">
            <path fill="#0077b7" style="fill: var(--color3, #0077b7)" d="M32 16c0 8.837-7.163 16-16 16s-16-7.163-16-16c0-8.837 7.163-16 16-16s16 7.163 16 16z"></path>
            <path fill="#fff" style="fill: var(--color2, #fff)" d="M23.738 22.713v-0.001h0.004v-5.3c0-2.593-0.558-4.59-3.589-4.59-1.457 0-2.435 0.8-2.834 1.558h-0.042v-1.316h-2.874v9.648h2.993v-4.777c0-1.258 0.238-2.474 1.796-2.474 1.535 0 1.558 1.435 1.558 2.555v4.697h2.99z"></path>
            <path fill="#fff" style="fill: var(--color2, #fff)" d="M9.529 13.064h2.996v9.648h-2.996v-9.648z"></path>
            <path fill="#fff" style="fill: var(--color2, #fff)" d="M11.027 8.258c-0.958 0-1.735 0.777-1.735 1.735s0.777 1.752 1.735 1.752c0.958 0 1.735-0.794 1.735-1.752s-0.778-1.735-1.735-1.735v0z"></path>
        </symbol>
        <symbol id="icon-share" viewBox="0 0 32 32">
            <path fill="none" opacity="0.2" stroke="#080808" style="stroke: var(--color1, #080808)" stroke-linejoin="miter" stroke-linecap="butt" stroke-miterlimit="4" stroke-width="1.3333" d="M31.333 16c0 8.468-6.865 15.333-15.333 15.333s-15.333-6.865-15.333-15.333c0-8.468 6.865-15.333 15.333-15.333s15.333 6.865 15.333 15.333z"></path>
            <path fill="none" stroke="#080808" style="stroke: var(--color1, #080808)" stroke-linejoin="round" stroke-linecap="round" stroke-miterlimit="4" stroke-width="1.3333" d="M15.481 12.387l1.032-1.032c1.14-1.14 2.989-1.14 4.129 0s1.14 2.989 0 4.129l-1.032 1.032M17.546 18.581l-2.065 2.065c-1.14 1.14-2.989 1.14-4.129 0s-1.14-2.989 0-4.129l2.064-2.065"></path>
            <path fill="none" stroke="#080808" style="stroke: var(--color1, #080808)" stroke-linejoin="round" stroke-linecap="round" stroke-miterlimit="4" stroke-width="1.3333" d="M13.414 18.58l5.161-5.161"></path>
        </symbol>
    </defs>
</svg>